<svg width="41" height="43" viewBox="0 0 41 43" fill="none" xmlns="http://www.w3.org/2000/svg">
<g filter="url(#filter0_b_52_2)">
<rect width="41" height="39" rx="19.5" fill="#FFFEFE" fill-opacity="0.03"/>
<rect x="0.5" y="0.5" width="40" height="38" rx="19" stroke="white"/>
</g>
<path d="M15.9474 28.7172V11.6255C15.9473 11.3396 16.013 11.0587 16.1378 10.8112C16.2627 10.5637 16.4422 10.3584 16.6584 10.216C16.8745 10.0735 17.1196 9.99904 17.3689 10C17.6181 10.001 17.8628 10.0774 18.0781 10.2215L30.8493 18.769C31.063 18.9121 31.2403 19.117 31.3635 19.3632C31.4867 19.6094 31.5515 19.8883 31.5515 20.1722C31.5515 20.456 31.4867 20.7349 31.3635 20.9811C31.2403 21.2273 31.063 21.4322 30.8493 21.5754L18.0781 30.1212C17.8628 30.2653 17.6181 30.3417 17.3689 30.3427C17.1196 30.3437 16.8745 30.2692 16.6584 30.1268C16.4422 29.9843 16.2627 29.779 16.1378 29.5315C16.013 29.284 15.9473 29.0032 15.9474 28.7172Z" fill="url(#paint0_linear_52_2)"/>
<defs>
<filter id="filter0_b_52_2" x="-12" y="-12" width="65" height="63" filterUnits="userSpaceOnUse" color-interpolation-filters="sRGB">
<feFlood flood-opacity="0" result="BackgroundImageFix"/>
<feGaussianBlur in="BackgroundImage" stdDeviation="6"/>
<feComposite in2="SourceAlpha" operator="in" result="effect1_backgroundBlur_52_2"/>
<feBlend mode="normal" in="SourceGraphic" in2="effect1_backgroundBlur_52_2" result="shape"/>
</filter>
<linearGradient id="paint0_linear_52_2" x1="23.7494" y1="10" x2="23.7494" y2="30.3427" gradientUnits="userSpaceOnUse">
<stop stop-color="#D60202"/>
<stop offset="1" stop-color="#06C4C4" stop-opacity="0.71"/>
</linearGradient>
</defs>
</svg>
